<?xml version="1.0" encoding="UTF-8" standalone="no"?>
<!-- Inkscape 0.48.2 r9819 (Aug 14 2011)#Logo_Polytech_Annecy_Chambery.emf -->

<svg
   xmlns:dc="http://purl.org/dc/elements/1.1/"
   xmlns:cc="http://creativecommons.org/ns#"
   xmlns:rdf="http://www.w3.org/1999/02/22-rdf-syntax-ns#"
   xmlns:svg="http://www.w3.org/2000/svg"
   xmlns="http://www.w3.org/2000/svg"
   xmlns:sodipodi="http://sodipodi.sourceforge.net/DTD/sodipodi-0.dtd"
   xmlns:inkscape="http://www.inkscape.org/namespaces/inkscape"
   version="1.0"
   width="287.87mm"
   height="85.199997mm"
   id="svg2985"
   inkscape:version="0.48.2 r9819"
   sodipodi:docname="Logo_Polytech_Annecy_Chambery.emf">
  <metadata
     id="metadata3043">
    <rdf:RDF>
      <cc:Work
         rdf:about="">
        <dc:format>image/svg+xml</dc:format>
        <dc:type
           rdf:resource="http://purl.org/dc/dcmitype/StillImage" />
        <dc:title></dc:title>
      </cc:Work>
    </rdf:RDF>
  </metadata>
  <sodipodi:namedview
     pagecolor="#ffffff"
     bordercolor="#666666"
     borderopacity="1"
     objecttolerance="10"
     gridtolerance="10"
     guidetolerance="10"
     inkscape:pageopacity="0"
     inkscape:pageshadow="2"
     inkscape:window-width="1366"
     inkscape:window-height="706"
     id="namedview3041"
     showgrid="false"
     inkscape:zoom="1.1823393"
     inkscape:cx="510.00589"
     inkscape:cy="150.94487"
     inkscape:window-x="-8"
     inkscape:window-y="-8"
     inkscape:window-maximized="1"
     inkscape:current-layer="svg2985" />
  <defs
     id="defs2987" />
  <g
     id="g2989">
    <path
       style="fill:#0d4d84;fill-rule:nonzero;fill-opacity:1;stroke:none;"
       d="  M 351.56694 141.05904   L 366.4134 141.05904   L 366.76773 141.05904   L 366.76773 141.05904   C 369.9567 141.05904 372.47245 141.02361 374.03151 140.56298   L 374.03151 140.56298   C 375.59056 140.06692 376.12206 139.71259 376.75985 138.2244   L 376.75985 138.2244   C 377.14962 137.19684 377.43308 135.53149 377.43308 133.1929   L 377.43308 133.1929   C 377.46851 128.26771 376.75985 125.92912 376.01576 125.29133   L 376.01576 125.29133   C 375.44883 124.54723 373.57088 124.05117 369.53151 124.0866   L 351.56694 124.0866   L 351.56694 141.05904   z  M 340.37009 171.35432   L 340.37009 114.23621   L 372.40159 114.23621   C 378.46064 114.16535 382.92521 116.18503 385.44096 119.72834   L 385.44096 119.72834   C 387.99214 123.27164 388.62993 127.70078 388.62993 132.41338   L 388.62993 132.41338   C 388.62993 134.82282 388.66537 139.21652 386.57481 143.32676   L 386.57481 143.32676   C 384.48426 147.50786 379.77166 150.9803 372.08269 150.874   L 351.56694 150.874   L 351.56694 171.35432   L 340.37009 171.35432   L 340.37009 171.35432 "
       id="path2991" />
    <path
       style="fill:#0d4d84;fill-rule:nonzero;fill-opacity:1;stroke:none;"
       d="  M 439.15749 123.62597   C 434.37403 123.62597 431.89371 124.2992 430.90159 125.36219   L 430.90159 125.36219   C 429.80316 126.31889 429.05907 128.76377 429.0945 133.75983   L 429.0945 152.46849   C 429.0945 157.46455 430.01576 159.51967 431.22049 160.44093   L 431.22049 160.44093   C 432.35434 161.43306 434.97639 161.92912 439.15749 161.92912   L 446.9882 161.92912   C 451.20474 161.92912 453.82678 161.43306 454.99608 160.44093   L 454.99608 160.44093   C 456.12993 159.51967 457.08663 157.46455 457.08663 152.46849   L 457.08663 133.75983   C 457.12206 128.76377 456.37797 126.31889 455.27954 125.36219   L 455.27954 125.36219   C 454.28741 124.2992 451.8071 123.62597 447.02364 123.62597   L 439.15749 123.62597   M 447.05907 113.81101   C 454.50001 113.91731 459.85041 114.94487 463.53545 118.38188   L 463.53545 118.38188   C 467.22049 121.85432 468.31891 126.99212 468.31891 133.75983   L 468.31891 152.46849   C 468.31891 158.88188 467.00789 163.94881 463.28742 167.31495   L 463.28742 167.31495   C 459.60238 170.61022 454.25198 171.74408 447.02364 171.77951   L 439.15749 171.77951   L 439.15749 171.77951   C 431.96458 171.74408 426.57875 170.61022 422.85828 167.31495   L 422.85828 167.31495   C 419.17324 163.94881 417.86222 158.88188 417.86222 152.46849   L 417.86222 133.75983   C 417.86222 126.99212 418.96064 121.85432 422.64568 118.38188   L 422.64568 118.38188   C 426.33072 114.94487 431.68111 113.91731 439.15749 113.81101   L 447.02364 113.81101 "
       id="path2993" />
    <path
       style="fill:#0d4d84;fill-rule:nonzero;fill-opacity:1;stroke:none;"
       d="  M 503.53938 171.35432   L 503.53938 114.23621   L 514.77167 114.23621   L 514.77167 161.50392   L 544.50002 161.50392   L 544.50002 171.35432   L 503.53938 171.35432   L 503.53938 171.35432  z "
       id="path2995" />
    <path
       style="fill:#0d4d84;fill-rule:nonzero;fill-opacity:1;stroke:none;"
       d="  M 587.126 171.35432   L 587.126 147.86219   L 563.63387 114.23621   L 576.92128 114.23621   L 593.00789 137.12597   L 609.09451 114.23621   L 622.66537 114.23621   L 598.35829 147.86219   L 598.35829 171.35432   L 587.126 171.35432   L 587.126 171.35432  z "
       id="path2997" />
    <path
       style="fill:#0d4d84;fill-rule:nonzero;fill-opacity:1;stroke:none;"
       d="  M 665.75199 171.35432   L 665.75199 124.0866   L 646.83073 124.0866   L 646.83073 114.23621   L 695.8701 114.23621   L 695.8701 124.0866   L 676.94884 124.0866   L 676.94884 171.35432   L 665.75199 171.35432   L 665.75199 171.35432  z "
       id="path2999" />
    <path
       style="fill:#0d4d84;fill-rule:nonzero;fill-opacity:1;stroke:none;"
       d="  M 727.19293 171.35432   L 727.19293 114.23621   L 769.32286 114.23621   L 769.32286 124.0866   L 738.42522 124.0866   L 738.42522 137.33857   L 767.9764 137.33857   L 767.9764 146.83463   L 738.42522 146.83463   L 738.42522 161.50392   L 769.32286 161.50392   L 769.32286 171.35432   L 727.19293 171.35432   L 727.19293 171.35432  z "
       id="path3001" />
    <path
       style="fill:#0d4d84;fill-rule:nonzero;fill-opacity:1;stroke:none;"
       d="  M 822.96853 171.77951   L 822.93309 171.77951   L 822.93309 171.77951   C 817.19294 171.77951 812.30317 170.11416 808.86617 166.78345   L 808.86617 166.78345   C 805.42916 163.48818 803.69294 158.63385 803.69294 152.92912   L 803.69294 132.62597   C 803.62207 124.75983 806.66931 119.37401 811.77168 116.75196   L 811.77168 116.75196   C 816.83861 114.16535 823.18113 113.84645 830.33861 113.81101   L 835.7953 113.81101   C 842.17325 113.81101 846.85042 115.01574 850.00396 118.16928   L 850.00396 118.16928   C 853.12207 121.32283 854.07877 125.82282 854.07877 131.24408   L 854.07877 135.21259   L 842.84648 135.21259   L 842.84648 131.42125   C 842.88191 127.87794 842.35042 125.99999 841.53546 125.22046   L 841.53546 125.22046   C 840.8268 124.37007 838.98428 123.62597 834.87404 123.62597   L 831.11813 123.62597   C 826.05121 123.62597 822.2953 123.87401 819.85042 124.54723   L 819.85042 124.54723   C 817.3701 125.2559 816.41341 126.07086 815.66932 127.59448   L 815.66932 127.59448   C 815.20869 128.62204 814.88979 130.21653 814.92522 132.41338   L 814.92522 146.87007   C 814.88979 151.2992 814.99609 154.77164 815.59845 157.03936   L 815.59845 157.03936   C 816.23624 159.34251 816.94491 160.26377 818.64569 161.07873   L 818.64569 161.07873   C 819.81498 161.57479 821.62207 161.92912 824.20869 161.92912   L 832.07483 161.92912   C 835.97247 161.92912 838.77168 161.71652 840.47247 161.22046   L 840.47247 161.22046   C 842.17325 160.6181 842.63388 160.15747 843.12995 159.09448   L 843.12995 159.09448   C 843.41341 158.31495 843.62601 157.11022 843.62601 155.40944   L 843.62601 148.88975   L 854.85829 148.88975   L 854.85829 156.08266   C 854.92916 162.60235 852.23625 167.20865 847.84254 169.33463   L 847.84254 169.33463   C 843.55514 171.49605 838.20475 171.74408 832.28743 171.77951   L 822.96853 171.77951 "
       id="path3003" />
    <path
       style="fill:#0d4d84;fill-rule:nonzero;fill-opacity:1;stroke:none;"
       d="  M 929.30318 171.35432   L 929.30318 147.18896   L 899.71656 147.18896   L 899.71656 171.35432   L 888.51971 171.35432   L 888.51971 114.23621   L 899.75199 114.23621   L 899.71656 137.33857   L 929.30318 137.33857   L 929.30318 114.23621   L 940.53546 114.23621   L 940.53546 171.35432   L 929.30318 171.35432   L 929.30318 171.35432  z "
       id="path3005" />
    <path
       style="fill:#0d4d84;fill-rule:nonzero;fill-opacity:1;stroke:none;"
       d="  M 966.75593 115.58267   C 966.43704 117.60235 964.87798 118.77164 963.10633 118.77164   C 960.48428 118.77164 958.78349 116.82283 958.78349 114.27164   C 958.78349 111.68503 960.37798 109.77164 963.07089 109.77164   C 964.91341 109.77164 966.43704 110.87007 966.68507 112.88975   L 965.12601 112.88975   C 964.94885 111.9685 964.09845 111.40157 963.07089 111.40157   C 961.54727 111.40157 960.69688 112.60629 960.69688 114.23621   C 960.69688 115.8307 961.61814 117.14172 963.10633 117.14172   C 964.20475 117.14172 965.01971 116.53936 965.12601 115.58267   L 966.75593 115.58267   z  M 962.82286 120.25983   C 965.94097 120.25983 968.49215 117.74409 968.49215 114.34251   C 968.49215 110.87007 965.94097 108.42519 962.82286 108.42519   C 959.63389 108.42519 957.11814 110.87007 957.11814 114.34251   C 957.11814 117.74409 959.63389 120.25983 962.82286 120.25983   z  M 962.82286 106.79527   C 966.89767 106.79527 970.54727 109.73621 970.54727 114.34251   C 970.54727 118.91338 966.89767 121.85432 962.82286 121.85432   C 958.71263 121.85432 955.09845 118.91338 955.09845 114.34251   C 955.09845 109.73621 958.71263 106.79527 962.82286 106.79527 "
       id="path3007" />
    <path
       style="fill:#00adef;fill-rule:nonzero;fill-opacity:1;stroke:none;"
       d="  M 139.99607 0.035433068   C 70.759845 0.035433068 13.074804 49.251965 0 114.62598   L 58.429136 114.62598   C 62.716537 102.15354 69.803152 90.992119 78.980317 81.779521   C 94.677168 66.118105 116.07874 56.515744 139.99607 56.515744   C 163.91339 56.515744 185.31497 66.118105 201.01182 81.779521   C 216.67323 97.511803 226.2756 118.87794 226.2756 142.79526   C 226.2756 166.71259 216.67323 188.11416 201.01182 203.81101   C 185.31497 219.47242 163.91339 229.07479 139.99607 229.07479   C 116.07874 229.07479 94.677168 219.47242 78.980317 203.81101   C 69.874018 194.70471 62.85827 183.64959 58.535435 171.31888   L 0.14173229 171.31888   L 0.14173229 244.09841   C 0.14173229 305.46848 53.220474 301.85431 53.220474 301.85431   L 53.255907 256.21652   C 77.314963 274.64171 107.36221 285.5551 139.99607 285.59053   C 218.87009 285.5551 282.75591 221.66927 282.79135 142.79526   C 282.75591 63.921255 218.87009 0.035433068 139.99607 0.035433068 "
       id="path3009" />
    <path
       style="fill:#00adef;fill-rule:nonzero;fill-opacity:1;stroke:none;"
       d="  M 355.96064 205.26376   L 347.70473 229.25195   L 364.32285 229.25195   L 355.96064 205.26376   z  M 346.07481 234.21258   L 343.13387 242.78738   L 336.22442 242.78738   L 351.10631 200.1614   L 360.63781 200.1614   L 375.73229 242.78738   L 368.92914 242.78738   L 365.95277 234.21258   L 346.07481 234.21258 "
       id="path3011" />
    <path
       style="fill:#00adef;fill-rule:nonzero;fill-opacity:1;stroke:none;"
       d="  M 425.44489 242.78738   L 414.53151 242.78738   L 399.57875 216.70864   C 398.87009 215.43305 398.2323 214.15746 395.78741 209.40943   L 395.29135 208.48817   L 393.94489 205.75983   L 393.69686 205.75983   C 393.83859 208.7362 393.76773 207.49605 393.83859 209.4803   C 393.87403 210.96849 393.87403 211.92518 393.87403 214.65353   L 393.87403 242.78738   L 387.42521 242.78738   L 387.42521 200.1614   L 398.30316 200.1614   L 411.5197 223.61809   C 413.07875 226.31101 414.07088 228.22439 418.88978 237.22439   L 419.06694 237.22439   L 419.06694 236.51573   C 418.99608 234.60234 419.06694 235.48817 418.99608 233.57478   C 418.92521 232.05116 418.92521 231.09447 418.92521 228.47242   L 418.92521 200.1614   L 425.44489 200.1614   L 425.44489 242.78738 "
       id="path3013" />
    <path
       style="fill:#00adef;fill-rule:nonzero;fill-opacity:1;stroke:none;"
       d="  M 478.98427 242.78738   L 468.03545 242.78738   L 453.08269 216.70864   C 452.37403 215.43305 451.73623 214.15746 449.32678 209.40943   L 448.79529 208.48817   L 447.44883 205.75983   L 447.2008 205.75983   C 447.34253 208.7362 447.27167 207.49605 447.34253 209.4803   C 447.37797 210.96849 447.37797 211.92518 447.37797 214.65353   L 447.37797 242.78738   L 440.92915 242.78738   L 440.92915 200.1614   L 451.8071 200.1614   L 465.05907 223.61809   C 466.58269 226.31101 467.61025 228.22439 472.39371 237.22439   L 472.57088 237.22439   L 472.57088 236.51573   C 472.53545 234.60234 472.57088 235.48817 472.53545 233.57478   C 472.46458 232.05116 472.46458 231.09447 472.46458 228.47242   L 472.46458 200.1614   L 478.98427 200.1614   L 478.98427 242.78738 "
       id="path3015" />
    <path
       style="fill:#00adef;fill-rule:nonzero;fill-opacity:1;stroke:none;"
       d="  M 499.71261 218.374   L 520.47639 218.374   L 520.47639 223.44093   L 499.71261 223.44093   L 499.71261 237.29526   L 521.57482 237.29526   L 521.57482 242.78738   L 493.19293 242.78738   L 493.19293 200.1614   L 521.43309 200.1614   L 521.43309 205.65353   L 499.71261 205.65353   L 499.71261 218.374  z "
       id="path3017" />
    <path
       style="fill:#00adef;fill-rule:nonzero;fill-opacity:1;stroke:none;"
       d="  M 568.94884 228.08266   L 568.94884 229.60628   C 569.0197 236.19683 568.16931 238.71258 565.47639 240.80313   C 562.92521 242.71652 560.126 243.17715 551.2323 243.17715   C 543.89765 243.17715 540.99214 242.57478 538.44096 240.62597   C 535.25198 238.18108 534.04726 234.53148 533.90553 226.7362   L 533.79923 221.38581   C 533.72836 217.80707 533.72836 218.12597 533.72836 217.59447   C 533.72836 209.40943 534.61419 205.90156 537.3071 203.42124   C 540.42521 200.40943 543.57876 199.77164 553.92521 199.77164   C 562.74805 199.77164 565.79529 201.04723 567.46065 205.51179   C 568.24017 207.42518 568.38191 208.59447 568.48821 213.7677   L 562.03939 213.7677   C 562.03939 213.27164 561.96852 212.88187 561.96852 212.59841   C 561.89765 206.36219 560.69293 205.4055 553.28742 205.4055   C 541.77167 205.4055 540.56694 206.36219 540.56694 215.50392   C 540.56694 220.67715 540.56694 223.54723 540.70868 227.374   C 540.88584 236.33856 542.2323 237.54329 551.94096 237.54329   C 561.01183 237.54329 562.53545 236.51573 562.53545 230.27951   C 562.53545 229.99604 562.46458 229.03935 562.46458 228.08266   L 568.94884 228.08266 "
       id="path3019" />
    <path
       style="fill:#00adef;fill-rule:nonzero;fill-opacity:1;stroke:none;"
       d="  M 599.81104 225.77951   L 599.81104 242.78738   L 593.32679 242.78738   L 593.32679 225.77951   L 577.77167 200.1614   L 585.31891 200.1614   L 593.04332 212.95274   C 593.82285 214.15746 594.00002 214.47636 596.62206 219.15353   L 596.7638 219.15353   C 597.50789 217.87794 597.33073 218.12597 598.53545 216.07085   C 599.17325 214.93699 599.74017 213.83857 600.34254 212.95274   L 608.06695 200.1614   L 615.79136 200.1614   L 599.81104 225.77951 "
       id="path3021" />
    <path
       style="fill:#00adef;fill-rule:nonzero;fill-opacity:1;stroke:none;"
       d="  M 631.80711 224.00786   L 631.80711 229.49998   L 618.05907 229.49998   L 618.12994 224.00786   L 631.80711 224.00786  z "
       id="path3023" />
    <path
       style="fill:#00adef;fill-rule:nonzero;fill-opacity:1;stroke:none;"
       d="  M 676.91341 228.08266   L 676.91341 229.60628   C 676.98427 236.19683 676.16931 238.71258 673.4764 240.80313   C 670.92522 242.71652 668.09057 243.17715 659.19687 243.17715   C 651.86222 243.17715 648.99214 242.57478 646.44096 240.62597   C 643.25199 238.18108 642.01183 234.53148 641.90553 226.7362   L 641.7638 221.38581   C 641.69293 217.80707 641.69293 218.12597 641.69293 217.59447   C 641.69293 209.40943 642.57876 205.90156 645.27167 203.42124   C 648.42522 200.40943 651.54333 199.77164 661.88978 199.77164   C 670.71262 199.77164 673.7953 201.04723 675.46065 205.51179   C 676.20474 207.42518 676.34648 208.59447 676.48821 213.7677   L 670.03939 213.7677   C 670.03939 213.27164 669.93309 212.88187 669.93309 212.59841   C 669.89766 206.36219 668.6575 205.4055 661.25199 205.4055   C 649.77167 205.4055 648.53152 206.36219 648.53152 215.50392   C 648.53152 220.67715 648.53152 223.54723 648.67325 227.374   C 648.85041 236.33856 650.19687 237.54329 659.90553 237.54329   C 669.01183 237.54329 670.53545 236.51573 670.53545 230.27951   C 670.53545 229.99604 670.46459 229.03935 670.46459 228.08266   L 676.91341 228.08266 "
       id="path3025" />
    <path
       style="fill:#00adef;fill-rule:nonzero;fill-opacity:1;stroke:none;"
       d="  M 724.21656 242.78738   L 717.69687 242.78738   L 717.69687 223.79526   L 695.37404 223.79526   L 695.37404 242.78738   L 688.88978 242.78738   L 688.88978 200.1614   L 695.37404 200.1614   L 695.37404 218.23227   L 717.69687 218.23227   L 717.69687 200.1614   L 724.21656 200.1614   L 724.21656 242.78738  z "
       id="path3027" />
    <path
       style="fill:#00adef;fill-rule:nonzero;fill-opacity:1;stroke:none;"
       d="  M 755.68112 205.26376   L 747.46065 229.25195   L 764.07876 229.25195   L 755.68112 205.26376   z  M 745.7953 234.21258   L 742.85435 242.78738   L 735.9449 242.78738   L 750.82679 200.1614   L 760.35829 200.1614   L 775.45278 242.78738   L 768.64963 242.78738   L 765.67325 234.21258   L 745.7953 234.21258 "
       id="path3029" />
    <path
       style="fill:#00adef;fill-rule:nonzero;fill-opacity:1;stroke:none;"
       d="  M 835.4764 242.78738   L 829.02758 242.78738   L 829.02758 214.33463   C 829.02758 212.17321 829.02758 211.39368 829.13388 208.34644   L 829.20475 207.56691   L 829.20475 206.78739   L 829.27561 206.04329   L 829.27561 205.33463   L 829.09845 205.33463   C 827.36223 210.50786 826.86617 212.06691 826.2638 213.30707   L 814.46459 242.78738   L 808.29924 242.78738   L 796.35829 213.62597   C 795.86223 212.35038 795.5079 211.53542 794.44491 208.27557   L 794.16144 207.63778   L 793.91341 206.92912   L 793.73624 206.29132   L 793.48821 205.58266   L 793.34648 205.58266   L 793.34648 206.36219   C 793.41735 207.10628 793.41735 207.77951 793.41735 207.77951   C 793.59451 211.71258 793.59451 212.24408 793.59451 214.33463   L 793.59451 242.78738   L 787.14569 242.78738   L 787.14569 200.1614   L 797.95278 200.1614   L 807.41341 223.68896   C 808.12207 225.46061 808.51183 226.48817 809.96459 230.66927   L 810.28349 231.48423   L 810.53152 232.37006   L 810.85042 233.18502   L 811.16932 234.10628   L 811.38191 234.10628   L 811.70081 233.18502   L 812.01971 232.37006   L 812.26774 231.48423   L 812.58664 230.66927   C 814.00396 226.55904 814.46459 225.38975 815.10239 223.68896   L 824.49215 200.1614   L 835.4764 200.1614   L 835.4764 242.78738 "
       id="path3031" />
    <path
       style="fill:#00adef;fill-rule:nonzero;fill-opacity:1;stroke:none;"
       d="  M 867.01184 237.29526   C 872.50396 237.22439 870.98034 237.22439 871.689 237.22439   C 877.0394 237.04723 878.24412 235.80707 878.24412 230.70471   C 878.24412 226.7362 877.53546 225.07085 875.62207 224.18502   C 874.41735 223.68896 873.77955 223.61809 868.78349 223.61809   L 857.48034 223.61809   L 857.48034 237.29526   L 867.01184 237.29526   z  M 868.64176 218.51573   C 875.90554 218.51573 877.11026 217.48817 877.11026 211.60628   C 877.11026 206.68109 875.94097 205.65353 870.20081 205.65353   L 857.48034 205.65353   L 857.48034 218.51573   L 868.64176 218.51573   z  M 850.96065 200.1614   L 870.90947 200.1614   C 876.0827 200.1614 878.06695 200.4803 879.87404 201.61416   C 882.46066 203.27951 883.62995 206.22046 883.62995 211.39368   C 883.62995 217.09841 882.14176 219.33069 877.74806 220.60628   L 877.74806 220.74801   C 882.99215 221.81101 884.76381 224.25589 884.76381 230.52754   C 884.76381 239.66927 881.6457 242.78738 872.4331 242.78738   L 850.96065 242.78738   L 850.96065 200.1614 "
       id="path3033" />
    <path
       style="fill:#00adef;fill-rule:nonzero;fill-opacity:1;stroke:none;"
       d="  M 919.31105 193.81888   L 907.97247 195.73227   L 907.29924 192.75589   L 918.07089 189.35432   L 919.31105 193.81888   z  M 903.96853 218.374   L 924.73231 218.374   L 924.73231 223.44093   L 903.96853 223.44093   L 903.96853 237.29526   L 925.83074 237.29526   L 925.83074 242.78738   L 897.44885 242.78738   L 897.44885 200.1614   L 925.689 200.1614   L 925.689 205.65353   L 903.96853 205.65353   L 903.96853 218.374 "
       id="path3035" />
    <path
       style="fill:#00adef;fill-rule:nonzero;fill-opacity:1;stroke:none;"
       d="  M 958.81893 221.56297   C 965.09058 221.56297 966.89767 219.89762 966.89767 214.01573   C 966.89767 207.10628 965.76381 205.75983 959.91735 205.75983   L 946.16932 205.75983   L 946.16932 221.56297   L 958.81893 221.56297   z  M 939.64963 200.1614   L 960.27168 200.1614   C 970.12208 200.1614 973.45278 203.35038 973.45278 212.81101   C 973.45278 220.78345 971.8583 223.22833 965.90554 224.32675   L 965.90554 224.50392   C 970.689 224.89368 972.92129 227.51573 972.92129 232.75982   L 972.92129 242.78738   L 966.36617 242.78738   L 966.36617 234.17715   C 966.36617 228.86219 964.62995 227.19683 959.13782 227.19683   L 946.16932 227.19683   L 946.16932 242.78738   L 939.64963 242.78738   L 939.64963 200.1614 "
       id="path3037" />
    <path
       style="fill:#00adef;fill-rule:nonzero;fill-opacity:1;stroke:none;"
       d="  M 1003.9961 225.77951   L 1003.9961 242.78738   L 997.47641 242.78738   L 997.47641 225.77951   L 981.95672 200.1614   L 989.50397 200.1614   L 997.22838 212.95274   C 998.0079 214.15746 998.18507 214.47636 1000.8071 219.15353   L 1000.9488 219.15353   C 1001.7284 217.87794 1001.5158 218.12597 1002.7559 216.07085   C 1003.3937 214.93699 1003.9607 213.83857 1004.5276 212.95274   L 1012.252 200.1614   L 1020.0118 200.1614   L 1003.9961 225.77951 "
       id="path3039" />
  </g>
</svg>
