<svg width="70" height="83" viewBox="0 0 70 83" fill="none" xmlns="http://www.w3.org/2000/svg">
<path d="M34.9999 81.3333H68.7499M1.25 81.3333H7.52954C9.36397 81.3333 10.2812 81.3333 11.1443 81.0754C11.9096 80.8468 12.6412 80.4696 13.3122 79.9579C14.0691 79.3807 14.7177 78.5736 16.0148 76.9594L63.1251 18.3333C66.2317 14.4673 66.2317 8.19926 63.1251 4.33327C60.0185 0.467278 54.9817 0.467282 51.8751 4.33327L4.76473 62.9594C3.46759 64.5736 2.81902 65.3807 2.3552 66.3226C1.94399 67.1577 1.64095 68.0681 1.45723 69.0204C1.25 70.0946 1.25 71.236 1.25 73.5189V81.3333Z" stroke="#4B5563" stroke-width="1.5" stroke-linecap="round" stroke-linejoin="round"/>
</svg>
